# xmcd CD database file
#
# Track frame offsets:
#	150
#	20652
#	40027
#	58435
#	74420
#	98025
#	121257
#	140665
#	161247
#	186065
#
# Disc length: 2718 seconds
#
# Revision: 0
# Processed by: cddbd v1.5.1PL0 Copyright (c) Steve Scherf et al.
# Submitted via: CDex 1.51
#
DISCID=920a9c0a
DTITLE=吉川洋一郎 - 太陽のまつげ
DYEAR=1990
DGENRE=Electronic
TTITLE0=ウェザーウェイ
TTITLE1=CORUS
TTITLE2=太陽のまつげ
TTITLE3=雲にのる人々
TTITLE4=バダール
TTITLE5=LIGHT BREEZE
TTITLE6=トルネードの女王
TTITLE7=ソーザリートの輝き
TTITLE8=ミストラル
TTITLE9=風思
EXTD=YEAR: 1990
EXTT0=
EXTT1=
EXTT2=
EXTT3=
EXTT4=
EXTT5=
EXTT6=
EXTT7=
EXTT8=
EXTT9=
PLAYORDER=
